<svg width="41" height="90" viewBox="0 0 41 90" fill="none" xmlns="http://www.w3.org/2000/svg">
<path d="M37.32 2.99999H40.32V-5.72205e-06H37.32V2.99999ZM37.32 87V90H40.32V87H37.32ZM21.72 87H18.72V90H21.72V87ZM21.72 16.08H24.72V13.08H21.72V16.08ZM3.96 16.08H0.96V19.08H3.96V16.08ZM3.96 2.99999V-5.72205e-06H0.96V2.99999H3.96ZM34.32 2.99999V87H40.32V2.99999H34.32ZM37.32 84H21.72V90H37.32V84ZM24.72 87V16.08H18.72V87H24.72ZM21.72 13.08H3.96V19.08H21.72V13.08ZM6.96 16.08V2.99999H0.96V16.08H6.96ZM3.96 5.99999H37.32V-5.72205e-06H3.96V5.99999Z" fill="#595959" fill-opacity="0.2"/>
</svg>
