<svg width="74" height="92" viewBox="0 0 74 92" fill="none" xmlns="http://www.w3.org/2000/svg">
<path d="M70.12 75.8H73.12V72.8H70.12V75.8ZM70.12 89V92H73.12V89H70.12ZM8.2 89H5.2V92H8.2V89ZM8.2 78.56L6.13416 76.3846L5.2 77.2717V78.56H8.2ZM41.56 46.88L43.6259 49.0554L43.6347 49.0469L41.56 46.88ZM49.12 37.52L46.4367 36.1784L46.4285 36.1947L46.4206 36.2112L49.12 37.52ZM47.2 20.48L49.0566 18.1235H49.0566L47.2 20.48ZM15.88 26.12L14.0509 28.4979L16.4116 30.3138L18.2446 27.9663L15.88 26.12ZM4.96 17.72L2.55476 15.927L0.788656 18.2962L3.13087 20.0979L4.96 17.72ZM18.16 7.52L19.3562 10.2712L19.3655 10.2672L19.3748 10.263L18.16 7.52ZM58.72 10.28L56.8544 12.6293L58.72 10.28ZM64 40.76L61.2954 39.4618H61.2954L64 40.76ZM52.96 54.44L50.9039 52.2554L50.8977 52.2612L50.8916 52.267L52.96 54.44ZM30.52 75.8L28.4516 73.627L23.0171 78.8H30.52V75.8ZM67.12 75.8V89H73.12V75.8H67.12ZM70.12 86H8.2V92H70.12V86ZM11.2 89V78.56H5.2V89H11.2ZM10.2658 80.7354L43.6258 49.0554L39.4942 44.7046L6.13416 76.3846L10.2658 80.7354ZM43.6347 49.0469C47.4847 45.3607 50.3074 41.9474 51.8194 38.8288L46.4206 36.2112C45.3726 38.3726 43.1553 41.1993 39.4853 44.7131L43.6347 49.0469ZM51.8033 38.8616C53.3399 35.7885 54.16 32.6518 54.16 29.48H48.16C48.16 31.5882 47.6201 33.8115 46.4367 36.1784L51.8033 38.8616ZM54.16 29.48C54.16 24.8127 52.5436 20.8709 49.0566 18.1235L45.3434 22.8365C47.1364 24.2491 48.16 26.3073 48.16 29.48H54.16ZM49.0566 18.1235C45.6738 15.4583 41.0186 14.36 35.56 14.36V20.36C40.3414 20.36 43.4462 21.3417 45.3434 22.8365L49.0566 18.1235ZM35.56 14.36C26.2382 14.36 18.7367 17.5868 13.5154 24.2737L18.2446 27.9663C22.1433 22.9732 27.7618 20.36 35.56 20.36V14.36ZM17.7091 23.7421L6.78913 15.3421L3.13087 20.0979L14.0509 28.4979L17.7091 23.7421ZM7.36524 19.513C10.303 15.5721 14.2681 12.4834 19.3562 10.2712L16.9638 4.76879C11.0119 7.3566 6.17704 11.0678 2.55476 15.927L7.36524 19.513ZM19.3748 10.263C24.5476 7.97222 30.3667 6.8 36.88 6.8V0.799995C29.6333 0.799995 22.9724 2.10777 16.9452 4.77695L19.3748 10.263ZM36.88 6.8C45.5356 6.8 52.0907 8.84642 56.8544 12.6293L60.5857 7.93066C54.4693 3.07357 46.4644 0.799995 36.88 0.799995V6.8ZM56.8544 12.6293C61.5211 16.3353 63.88 21.3203 63.88 27.92H69.88C69.88 19.6397 66.7989 12.8647 60.5856 7.93066L56.8544 12.6293ZM63.88 27.92C63.88 32.0435 63.0155 35.8784 61.2954 39.4618L66.7046 42.0582C68.8245 37.6416 69.88 32.9165 69.88 27.92H63.88ZM61.2954 39.4618C59.608 42.9773 56.2333 47.2395 50.9039 52.2554L55.0161 56.6246C60.5667 51.4005 64.552 46.5427 66.7046 42.0582L61.2954 39.4618ZM50.8916 52.267L28.4516 73.627L32.5884 77.973L55.0284 56.613L50.8916 52.267ZM30.52 78.8H70.12V72.8H30.52V78.8Z" fill="#595959" fill-opacity="0.2"/>
</svg>
