<svg width="72" height="92" viewBox="0 0 72 92" fill="none" xmlns="http://www.w3.org/2000/svg">
<path d="M45.04 37.68L42.7447 35.7483L39.1846 39.9785L44.6717 40.6573L45.04 37.68ZM62.8 45.6L64.981 43.5401L62.8 45.6ZM65.2 75.12L67.7497 76.7008V76.7008L65.2 75.12ZM53.92 84.72L55.1911 87.4374L55.2004 87.433L55.2098 87.4286L53.92 84.72ZM18.28 85.68L17.3687 88.5382L17.3933 88.5461L17.418 88.5535L18.28 85.68ZM4.12 78.48L1.4963 77.0253L0.249181 79.2746L2.28153 80.8507L4.12 78.48ZM10.84 66.36L12.7724 64.0653L9.98399 61.7171L8.2163 64.9053L10.84 66.36ZM21.88 72.48L20.8843 75.3099L20.9155 75.3209L20.9469 75.3312L21.88 72.48ZM48.4 71.28L50.1496 73.717L50.1609 73.7088L48.4 71.28ZM48.64 52.8L46.8297 55.1922L46.8656 55.2194L46.9024 55.2455L48.64 52.8ZM27.28 49.44H24.28V52.44H27.28V49.44ZM27.28 38.76L24.9843 36.8287L24.28 37.6659V38.76H27.28ZM46.36 16.08L48.6557 18.0113L52.8042 13.08H46.36V16.08ZM8.2 16.08H5.2V19.08H8.2V16.08ZM8.2 2.99999V-5.72205e-06H5.2V2.99999H8.2ZM65.44 2.99999H68.44V-5.72205e-06H65.44V2.99999ZM65.44 13.44L67.7353 15.3717L68.44 14.5344V13.44H65.44ZM44.6717 40.6573C51.9601 41.559 57.1515 43.9884 60.619 47.6599L64.981 43.5401C60.2885 38.5716 53.6399 35.721 45.4083 34.7027L44.6717 40.6573ZM60.619 47.6599C64.1232 51.3703 65.92 56.0103 65.92 61.8H71.92C71.92 54.6297 69.6368 48.4697 64.981 43.5401L60.619 47.6599ZM65.92 61.8C65.92 66.1431 64.8248 70.032 62.6503 73.5392L67.7497 76.7008C70.5353 72.208 71.92 67.2169 71.92 61.8H65.92ZM62.6503 73.5392C60.526 76.9654 57.2489 79.812 52.6302 82.0114L55.2098 87.4286C60.6711 84.8279 64.914 81.2746 67.7497 76.7008L62.6503 73.5392ZM52.6489 82.0026C48.1914 84.0876 42.573 85.2 35.68 85.2V91.2C43.187 91.2 49.7286 89.9924 55.1911 87.4374L52.6489 82.0026ZM35.68 85.2C29.9642 85.2 24.4551 84.4004 19.142 82.8065L17.418 88.5535C23.3049 90.3196 29.3958 91.2 35.68 91.2V85.2ZM19.1913 82.8218C13.9514 81.1511 9.55802 78.9008 5.95847 76.1093L2.28153 80.8507C6.52198 84.1392 11.5686 86.6889 17.3687 88.5382L19.1913 82.8218ZM6.7437 79.9347L13.4637 67.8147L8.2163 64.9053L1.4963 77.0253L6.7437 79.9347ZM8.90759 68.6547C12.2637 71.4809 16.2736 73.6877 20.8843 75.3099L22.8757 69.6501C18.8464 68.2323 15.4963 66.3591 12.7724 64.0653L8.90759 68.6547ZM20.9469 75.3312C25.6488 76.87 30.4838 77.64 35.44 77.64V71.64C31.1162 71.64 26.9112 70.97 22.8131 69.6288L20.9469 75.3312ZM35.44 77.64C41.3239 77.64 46.3406 76.4517 50.1496 73.717L46.6504 68.843C44.2194 70.5883 40.5961 71.64 35.44 71.64V77.64ZM50.1609 73.7088C54.1316 70.8301 56.2 66.8108 56.2 61.92H50.2C50.2 64.8692 49.0684 67.0899 46.6391 68.8512L50.1609 73.7088ZM56.2 61.92C56.2 57.0872 54.2562 53.1103 50.3776 50.3545L46.9024 55.2455C49.1038 56.8097 50.2 58.9128 50.2 61.92H56.2ZM50.4503 50.4078C46.7246 47.5883 41.3801 46.44 34.96 46.44V52.44C40.8599 52.44 44.6354 53.5317 46.8297 55.1922L50.4503 50.4078ZM34.96 46.44H27.28V52.44H34.96V46.44ZM30.28 49.44V38.76H24.28V49.44H30.28ZM29.5757 40.6913L48.6557 18.0113L44.0643 14.1487L24.9843 36.8287L29.5757 40.6913ZM46.36 13.08H8.2V19.08H46.36V13.08ZM11.2 16.08V2.99999H5.2V16.08H11.2ZM8.2 5.99999H65.44V-5.72205e-06H8.2V5.99999ZM62.44 2.99999V13.44H68.44V2.99999H62.44ZM63.1447 11.5083L42.7447 35.7483L47.3353 39.6117L67.7353 15.3717L63.1447 11.5083Z" fill="#595959" fill-opacity="0.2"/>
</svg>
