<svg width="30" height="30" viewBox="0 0 30 30" fill="none" xmlns="http://www.w3.org/2000/svg">
<path d="M29.1211 14.1797H15.8789V13.2422C15.8789 11.7883 14.6961 10.6055 13.2422 10.6055H2.63672C2.15209 10.6055 1.75781 10.2112 1.75781 9.72659C1.75781 9.24196 2.15209 8.84768 2.63672 8.84768H16.5445C18.7163 8.84768 20.8401 8.13231 22.5494 6.85357L23.8927 10.8834C24.0071 11.2266 24.3201 11.4647 24.6814 11.4832C24.6966 11.484 24.7117 11.4844 24.7267 11.4844C25.0705 11.4844 25.3847 11.2832 25.5274 10.9674L29.922 1.24082C30.0559 0.944453 30.0151 0.59834 29.8161 0.341114C29.6171 0.0838293 29.2919 -0.0423814 28.9718 0.0127552L18.425 1.82916C18.0628 1.8915 17.7778 2.17252 17.7102 2.53369C17.6427 2.89486 17.8069 3.2599 18.1219 3.44898L21.4764 5.46167C20.0727 6.50599 18.3292 7.08987 16.5445 7.08987H2.63672C1.18283 7.08987 0 8.27271 0 9.72659C0 11.1805 1.18283 12.3633 2.63672 12.3633H13.2422C13.7268 12.3633 14.1211 12.7576 14.1211 13.2422V14.1797H0.878905C0.393515 14.1797 0 14.5732 0 15.0586V29.1211C0 29.6065 0.393515 30 0.878905 30H29.1211C29.6064 30 30 29.6065 30 29.1211V15.0586C30 14.5732 29.6064 14.1797 29.1211 14.1797ZM27.6383 2.02615L24.8502 8.19718L23.8025 5.05415C23.7351 4.85189 23.5919 4.68109 23.4209 4.57843L21.0564 3.1597L27.6383 2.02615ZM28.2421 28.2422H1.75781V15.9375H28.2421V28.2422Z" fill="white"/>
<path d="M4.39453 19.4531H7.96874C8.45413 19.4531 8.84765 19.0596 8.84765 18.5742C8.84765 18.0888 8.45413 17.6953 7.96874 17.6953H4.39453C3.90914 17.6953 3.51562 18.0888 3.51562 18.5742C3.51562 19.0596 3.90914 19.4531 4.39453 19.4531Z" fill="white"/>
<path d="M11.4844 19.4531H13.2422C13.7276 19.4531 14.1211 19.0596 14.1211 18.5742C14.1211 18.0888 13.7276 17.6953 13.2422 17.6953H11.4844C10.999 17.6953 10.6055 18.0888 10.6055 18.5742C10.6055 19.0596 10.999 19.4531 11.4844 19.4531Z" fill="white"/>
<path d="M16.7578 19.4531H18.5156C19.001 19.4531 19.3945 19.0596 19.3945 18.5742C19.3945 18.0888 19.001 17.6953 18.5156 17.6953H16.7578C16.2724 17.6953 15.8789 18.0888 15.8789 18.5742C15.8789 19.0596 16.2724 19.4531 16.7578 19.4531Z" fill="white"/>
<path d="M22.0312 19.4531H25.6054C26.0908 19.4531 26.4843 19.0596 26.4843 18.5742C26.4843 18.0888 26.0908 17.6953 25.6054 17.6953H22.0312C21.5458 17.6953 21.1523 18.0888 21.1523 18.5742C21.1523 19.0596 21.5458 19.4531 22.0312 19.4531Z" fill="white"/>
<path d="M20.2734 22.9687H25.6054C26.0908 22.9687 26.4843 22.5752 26.4843 22.0898C26.4843 21.6045 26.0908 21.2109 25.6054 21.2109H20.2734C19.788 21.2109 19.3945 21.6045 19.3945 22.0898C19.3945 22.5752 19.788 22.9687 20.2734 22.9687Z" fill="white"/>
<path d="M15 22.9687H16.7578C17.2432 22.9687 17.6367 22.5752 17.6367 22.0898C17.6367 21.6045 17.2432 21.2109 16.7578 21.2109H15C14.5146 21.2109 14.1211 21.6045 14.1211 22.0898C14.1211 22.5752 14.5146 22.9687 15 22.9687Z" fill="white"/>
<path d="M12.3633 22.0898C12.3633 21.6045 11.9698 21.2109 11.4844 21.2109H9.72656C9.24117 21.2109 8.84766 21.6045 8.84766 22.0898C8.84766 22.5752 9.24117 22.9687 9.72656 22.9687H11.4844C11.9698 22.9687 12.3633 22.5752 12.3633 22.0898Z" fill="white"/>
<path d="M4.39453 22.9687H6.21093C6.69632 22.9687 7.08984 22.5752 7.08984 22.0898C7.08984 21.6045 6.69632 21.2109 6.21093 21.2109H4.39453C3.90914 21.2109 3.51562 21.6045 3.51562 22.0898C3.51562 22.5752 3.90914 22.9687 4.39453 22.9687Z" fill="white"/>
<path d="M25.6054 24.7266H23.789C23.3036 24.7266 22.9101 25.1201 22.9101 25.6055C22.9101 26.0909 23.3036 26.4844 23.789 26.4844H25.6054C26.0908 26.4844 26.4843 26.0909 26.4843 25.6055C26.4843 25.1201 26.0908 24.7266 25.6054 24.7266Z" fill="white"/>
<path d="M20.2734 24.7266H11.4844C10.999 24.7266 10.6055 25.1201 10.6055 25.6055C10.6055 26.0909 10.999 26.4844 11.4844 26.4844H20.2734C20.7588 26.4844 21.1523 26.0909 21.1523 25.6055C21.1523 25.1201 20.7588 24.7266 20.2734 24.7266Z" fill="white"/>
<path d="M7.96874 24.7266H4.39453C3.90914 24.7266 3.51562 25.1201 3.51562 25.6055C3.51562 26.0909 3.90914 26.4844 4.39453 26.4844H7.96874C8.45413 26.4844 8.84765 26.0909 8.84765 25.6055C8.84765 25.1201 8.45413 24.7266 7.96874 24.7266Z" fill="white"/>
</svg>
