<svg width="24" height="30" viewBox="0 0 24 30" fill="none" xmlns="http://www.w3.org/2000/svg">
<path d="M4.63576 0L0 4.63576V30H23.1522V0H4.63576ZM5.11465 2.00701V5.11465H2.00701L5.11465 2.00701ZM21.3943 28.2422H1.75781V6.87246H6.87246V1.75781H21.3944V28.2422H21.3943Z" fill="white"/>
<path d="M16.1114 20.6664L19.6365 18.0257V17.089L16.1114 14.4482L15.0575 15.8551L17.3298 17.5573L15.0575 19.2596L16.1114 20.6664Z" fill="white"/>
<path d="M7.04074 14.4482L3.51562 17.089V18.0257L7.04074 20.6664L8.09461 19.2596L5.82234 17.5573L8.09461 15.8551L7.04074 14.4482Z" fill="white"/>
<path d="M9.31006 20.4313L12.2708 13.9546L13.8705 14.6859L10.9097 21.1626L9.31006 20.4313Z" fill="white"/>
</svg>
