<svg width="30" height="30" viewBox="0 0 30 30" fill="none" xmlns="http://www.w3.org/2000/svg">
<path d="M21.6 0H1.2C0.537598 0 0 0.537598 0 1.2V21.6C0 22.2624 0.537598 22.8 1.2 22.8H21.6C22.2624 22.8 22.8 22.2624 22.8 21.6V1.2C22.8 0.537598 22.2624 0 21.6 0ZM20.4 20.4H2.4V2.4H20.4V20.4Z" fill="white"/>
<path d="M27.6 24.6V27.6H24.6V30H28.8C29.4624 30 30 29.4624 30 28.8V24.6H27.6Z" fill="white"/>
<path d="M21.828 27.6H15.372V30H21.828V27.6Z" fill="white"/>
<path d="M9.60001 27.6V24.6H7.20001V28.8C7.20001 29.4624 7.73761 30 8.40001 30H12.6V27.6H9.60001Z" fill="white"/>
<path d="M28.8 7.19995H24.6V9.59995H27.6V12.6H30V8.39995C30 7.73755 29.4624 7.19995 28.8 7.19995Z" fill="white"/>
<path d="M30 15.3721H27.6V21.828H30V15.3721Z" fill="white"/>
</svg>
